<svg xmlns:dc="http://purl.org/dc/elements/1.1/" xmlns:cc="http://creativecommons.org/ns#" xmlns:rdf="http://www.w3.org/1999/02/22-rdf-syntax-ns#" xmlns:svg="http://www.w3.org/2000/svg" xmlns="http://www.w3.org/2000/svg" xmlns:sodipodi="http://sodipodi.sourceforge.net/DTD/sodipodi-0.dtd" xmlns:inkscape="http://www.inkscape.org/namespaces/inkscape" viewBox="0 0 12.7 15.875" version="1.1" x="0px" y="0px"><g transform="translate(0,-284.29998)"><path style="" d="m 6.1799806,284.82444 a 5.8208499,5.8208499 0 0 0 -5.65081196,5.81877 5.8208499,5.8208499 0 1 0 11.64166636,0 5.8208499,5.8208499 0 0 0 -5.9908544,-5.81877 z m 0.1731169,2.16886 a 0.17260116,0.17260116 0 0 1 0.1338527,0.0682 l 2.6437696,3.47679 a 0.17260116,0.17260116 0 0 1 0,0.20929 l -2.6437696,3.47679 a 0.17260116,0.17260116 0 0 1 -0.2743993,0 L 3.5687813,290.7476 a 0.17260116,0.17260116 0 0 1 0,-0.20929 l 2.6437696,-3.47679 a 0.17260116,0.17260116 0 0 1 0.1405466,-0.0682 z" fill="#000000" stroke="none"/></g><text x="0" y="27.7" fill="#000000" font-size="5px" font-weight="bold" font-family="'Helvetica Neue', Helvetica, Arial-Unicode, Arial, Sans-serif">Created by Phạm Thanh Lộc</text><text x="0" y="32.7" fill="#000000" font-size="5px" font-weight="bold" font-family="'Helvetica Neue', Helvetica, Arial-Unicode, Arial, Sans-serif">from the Noun Project</text></svg>